<svg xmlns="http://www.w3.org/2000/svg" aria-hidden="true" style="position:absolute;width:0;height:0;overflow:hidden">
  <defs>
    <symbol id="icon-arrow" viewBox="0 0 21 32">
      <path
        d="M19.042 18.067 1.832.857a1.003 1.003 0 0 0-.756-.319C.942.538.79.572.673.622a1.079 1.079 0 0 0-.672.992v25.277c0 .437.269.824.672.992.118.05.269.084.403.084.286 0 .555-.118.756-.319l5.244-5.244 3.21 7.597a1.08 1.08 0 0 0 1.412.571l2.975-1.261a1.08 1.08 0 0 0 .571-1.412l-3.378-8h6.42c.437 0 .824-.269.992-.672a1.038 1.038 0 0 0-.235-1.16z" />
    </symbol>
    <symbol id="icon-facebook" viewBox="0 0 32 32">
      <path stroke-linecap="round" stroke-linejoin="round" stroke-width="2.667"
        d="M24 2.667h-4a6.67 6.67 0 0 0-6.667 6.667v4h-4v5.333h4v10.667h5.333V18.667h4l1.333-5.333h-5.333v-4A1.334 1.334 0 0 1 20 8h4V2.667z" />
    </symbol>
    <symbol id="icon-heart" viewBox="0 0 34 32">
      <path
        d="M17.067 30.172c.305 0 .61-.114.838-.343l11.867-11.428c.171-.171 4.362-4 4.362-8.571 0-5.581-3.41-8.914-9.105-8.914-3.333 0-6.457 2.629-7.962 4.114C15.562 3.544 12.438.916 9.105.916 3.41.916 0 4.249 0 9.83c0 4.571 4.191 8.4 4.343 8.533L16.229 29.83c.229.229.533.343.838.343z" />
    </symbol>
    <symbol id="icon-hourglass" viewBox="0 0 26 32">
      <path
        d="M23.664 2.689h1.614a.531.531 0 0 0 .538-.538V1.075a.53.53 0 0 0-.538-.538H.538A.53.53 0 0 0 0 1.075v1.076a.53.53 0 0 0 .538.538h1.613c0 6.219 2.975 10.723 6.269 12.908-3.294 2.185-6.269 6.689-6.269 12.908H.538a.53.53 0 0 0-.538.538v1.076c0 .302.235.538.538.538h24.74a.531.531 0 0 0 .538-.538v-1.076a.531.531 0 0 0-.538-.538h-1.614c0-6.219-2.975-10.723-6.269-12.908 3.294-2.185 6.269-6.689 6.269-12.908zm-2.151 0c0 2.454-.555 4.622-1.429 6.454H5.731c-.874-1.832-1.429-4-1.429-6.454h17.21zm-.958 20.437H5.261c1.244-3.244 3.479-5.546 5.714-6.454h3.866c2.235.908 4.471 3.21 5.714 6.454z" />
    </symbol>
    <symbol id="icon-instagram" viewBox="0 0 32 32">
      <path stroke-linecap="round" stroke-linejoin="round" stroke-width="2.667"
        d="M22.667 2.667H9.334a6.667 6.667 0 0 0-6.667 6.667v13.333a6.667 6.667 0 0 0 6.667 6.667h13.333a6.667 6.667 0 0 0 6.667-6.667V9.334a6.667 6.667 0 0 0-6.667-6.667z" />
      <path stroke-linecap="round" stroke-linejoin="round" stroke-width="2.667"
        d="M21.333 15.16a5.338 5.338 0 0 1-6.123 6.049 5.334 5.334 0 1 1 6.124-6.048zM23.333 8.667h.013" />
    </symbol>
    <symbol id="icon-logo" viewBox="0 0 36 32">
      <path fill="#02bc6b"
        d="M2.785 30.323C1.253 30.323 0 29.082 0 27.566v-9.639h7.01v-.011h4.213c1.086-.028 2.005-.965 2.005-2.068 0-1.13-.947-2.068-2.089-2.068l-11.14.002v-2.759c0-1.516 1.253-2.757 2.785-2.757h8.355c2.117 0 3.927.744 5.403 2.233 1.504 1.461 2.256 3.253 2.256 5.349 0 2.068-.724 3.86-2.2 5.321s-3.258 2.233-5.347 2.261H5.57v4.136c0 1.516-1.253 2.757-2.785 2.757z"
        style="fill:var(--color1, #02bc6b)" />
      <path fill="#02897a"
        d="M22.309 5.067c3.077 2.959 4.627 6.644 4.627 10.832 0 4.118-1.486 7.8-4.515 10.768l-4.301-4.006c1.884-1.846 2.809-4.068 2.809-6.761 0-2.714-.953-4.933-2.882-6.788l4.262-4.044z"
        style="fill:var(--color2, #02897a)" />
      <path fill="#035b81"
        d="M28.894 0c4.432 4.38 6.662 9.812 6.662 16.046 0 6.136-2.14 11.564-6.499 15.954l-4.151-4.015c3.247-3.27 4.838-7.236 4.838-11.939 0-4.75-1.645-8.713-4.962-11.992L28.895.001z"
        style="fill:var(--color3, #035b81)" />
      <path fill="#028e37" d="M0 23.454h5.57v4.113c0 1.516-1.253 2.757-2.785 2.757S0 29.083 0 27.567v-4.113z"
        style="fill:var(--color4, #028e37)" />
    </symbol>
    <symbol id="icon-logo-mini" viewBox="0 0 34 32">
      <path fill="#02bc6b"
        d="M2.674 29.405A2.682 2.682 0 0 1 0 26.731v-9.347h6.73v-.01h4.045c1.043-.027 1.925-.936 1.925-2.005a2.02 2.02 0 0 0-2.005-2.005l-10.694.002v-2.675a2.682 2.682 0 0 1 2.674-2.674h8.021c2.032 0 3.77.722 5.187 2.166 1.444 1.417 2.166 3.155 2.166 5.187 0 2.005-.695 3.743-2.112 5.16s-3.128 2.166-5.133 2.192H5.35v4.01a2.682 2.682 0 0 1-2.674 2.674z"
        style="fill:var(--color1, #02bc6b)" />
      <path fill="#02897a"
        d="M21.417 4.913c2.954 2.869 4.442 6.442 4.442 10.504 0 3.994-1.426 7.563-4.334 10.441l-4.129-3.885c1.809-1.79 2.696-3.945 2.696-6.557 0-2.632-.914-4.783-2.766-6.582l4.091-3.922z"
        style="fill:var(--color2, #02897a)" />
      <path fill="#035b81"
        d="M27.738 0c4.254 4.248 6.395 9.515 6.395 15.559 0 5.95-2.054 11.214-6.239 15.471l-3.985-3.894c3.117-3.171 4.644-7.017 4.644-11.577 0-4.606-1.579-8.449-4.764-11.629l3.948-3.931z"
        style="fill:var(--color3, #035b81)" />
      <path fill="#028e37" d="M0 22.743h5.347v3.988c0 1.471-1.203 2.674-2.674 2.674s-2.674-1.203-2.674-2.674v-3.988z"
        style="fill:var(--color4, #028e37)" />
    </symbol>
    <symbol id="icon-mobile-phone" viewBox="0 0 21 32">
      <path
        d="M18.424 0H2.909C1.303 0 0 1.344 0 3v26c0 1.656 1.303 3 2.909 3h15.515c1.606 0 2.909-1.344 2.909-3V3c0-1.656-1.303-3-2.909-3zm-4.848 27.944c0 .606-.436 1.056-.97 1.056H8.673c-.479 0-.915-.45-.915-1s.436-1 .97-1h3.879c.533 0 .97.45.97.944zM17.455 24H3.879V4h13.576v20z" />
    </symbol>
    <symbol id="icon-scale" viewBox="0 0 41 32">
      <path
        d="m21.673 12.898 2.674 1.245 3.98-1.184v-2.775c0-4.714-3.98-8.49-8.735-8.49-4.735 0-8.735 3.755-8.735 8.429v12.653c0 1.163-.939 2.082-2.082 2.082s-2.082-.918-2.082-2.082v-5.347H-.001v5.429a8.753 8.753 0 0 0 8.755 8.755c4.796 0 8.755-3.857 8.755-8.633V10.49c0-1.143.939-2.082 2.082-2.082s2.082.939 2.082 2.082v2.408zm10.817 4.531v5.612c0 1.143-.939 2.061-2.082 2.061s-2.082-.918-2.082-2.061v-5.51l-3.98 1.184-2.674-1.245v5.469c0 4.796 3.939 8.674 8.755 8.674a8.753 8.753 0 0 0 8.755-8.755v-5.429h-6.694z" />
    </symbol>
    <symbol id="icon-star" viewBox="0 0 34 32">
      <path
        d="M32.404 11.487c-.102-.296-.29-.556-.541-.749s-.553-.308-.869-.333l-9.261-.725L17.725.944c-.128-.281-.335-.52-.598-.688a1.638 1.638 0 0 0-1.764-.001 1.6 1.6 0 0 0-.599.687l-4.008 8.737-9.261.725c-.311.024-.609.136-.857.323s-.437.439-.543.728a1.577 1.577 0 0 0 .394 1.689l6.844 6.57-2.421 10.321c-.074.312-.05.639.068.938s.324.556.592.739a1.64 1.64 0 0 0 1.826.013l8.845-5.807 8.845 5.807a1.646 1.646 0 0 0 1.857-.04c.268-.193.47-.462.579-.771s.118-.644.028-.958l-2.971-10.238 7.369-6.53c.482-.429.66-1.097.452-1.704z" />
    </symbol>
    <symbol id="icon-tick" viewBox="0 0 45 32">
      <path
        d="M42.17.638a2.108 2.108 0 0 0-3.022 0L13.542 26.74 3.699 16.707c-.835-.851-2.188-.851-3.023 0s-.835 2.23 0 3.081L12.03 31.362a2.11 2.11 0 0 0 3.023 0L42.17 3.719a2.208 2.208 0 0 0 0-3.081z" />
    </symbol>
    <symbol id="icon-transparent-star" viewBox="0 0 34 32">
      <path
        d="M8.624 19.716 6.203 30.037c-.075.313-.052.64.065.94s.323.558.591.74a1.635 1.635 0 0 0 1.828.01l8.845-5.807 8.845 5.807a1.646 1.646 0 0 0 1.857-.04c.268-.193.47-.462.579-.771s.118-.644.028-.958L25.87 19.72l7.369-6.53a1.578 1.578 0 0 0-.088-2.451 1.632 1.632 0 0 0-.87-.332l-9.261-.726L19.012.945c-.128-.281-.335-.52-.598-.688a1.638 1.638 0 0 0-1.764 0 1.6 1.6 0 0 0-.598.688l-4.008 8.736-9.261.725c-.311.024-.609.136-.857.323s-.437.439-.543.728a1.577 1.577 0 0 0 .394 1.689l6.846 6.57zm4.635-6.92c.29-.023.568-.121.806-.286s.426-.39.545-.651l2.922-6.368 2.922 6.368a1.627 1.627 0 0 0 1.351.937l6.453.504-5.314 4.709a1.587 1.587 0 0 0-.476 1.628l2.036 7.014-6.069-3.985a1.634 1.634 0 0 0-1.802 0l-6.342 4.164 1.706-7.272a1.579 1.579 0 0 0-.448-1.504l-4.935-4.738 6.644-.521z" />
    </symbol>
    <symbol id="icon-triangle" viewBox="0 0 28 32">
      <path
        d="M26.088 12.891c2.441 1.354 2.441 4.864 0 6.218L4.933 30.848c-2.37 1.315-5.281-.399-5.281-3.109V4.262c0-2.71 2.911-4.424 5.281-3.109l21.155 11.739z" />
    </symbol>
    <symbol id="icon-twitter" viewBox="0 0 32 32">
      <path stroke-linecap="round" stroke-linejoin="round" stroke-width="2.667"
        d="M30.667 4.013a14.542 14.542 0 0 1-4.187 2.04 5.975 5.975 0 0 0-6.637-1.661A5.979 5.979 0 0 0 16 10.053v1.333a14.211 14.211 0 0 1-12-6.04s-5.333 12 6.667 17.333a15.519 15.519 0 0 1-9.333 2.667c12 6.667 26.667 0 26.667-15.333a5.966 5.966 0 0 0-.107-1.107 10.288 10.288 0 0 0 2.773-4.893z" />
    </symbol>
    <symbol id="icon-minus-circle" viewBox="0 0 32 32">
      <path d="M0 16C0 7.168 7.168 0 16 0s16 7.168 16 16-7.168 16-16 16S0 24.832 0 16zm8 1.6h16v-3.2H8v3.2z" />
    </symbol>
    <symbol id="icon-plus-circle" viewBox="0 0 32 32">
      <path
        d="M0 16C0 7.168 7.168 0 16 0s16 7.168 16 16-7.168 16-16 16S0 24.832 0 16zm17.6 1.6H24v-3.2h-6.4V8h-3.2v6.4H8v3.2h6.4V24h3.2v-6.4z" />
    </symbol>
    <symbol id="icon-accountants" viewBox="0 0 32 32">
      <path fill="#d6b1ff"
        d="M28 32H16a1.334 1.334 0 0 1-1.334-1.334v-2.667A1.334 1.334 0 0 1 16 26.665h12a1.334 1.334 0 0 1 1.334 1.334v2.667A1.334 1.334 0 0 1 28 32z"
        style="fill:var(--color1, #d6b1ff)" />
      <path fill="#11b5e4"
        d="M28 0H4a1.335 1.335 0 0 0-1.334 1.334v2.667A1.335 1.335 0 0 0 4 5.335h24a1.335 1.335 0 0 0 1.334-1.334V1.334A1.334 1.334 0 0 0 28 0zM28 8H4a1.335 1.335 0 0 0-1.334 1.334v13.333A1.335 1.335 0 0 0 4 24.001h24a1.334 1.334 0 0 0 1.334-1.334V9.334A1.334 1.334 0 0 0 28 8z"
        style="fill:var(--color2, #11b5e4)" />
    </symbol>
    <symbol id="icon-enterpreneur" viewBox="0 0 32 32">
      <path fill="#d6b1ff" d="M24 13.333h8L28 8l-4 5.333zm0 5.334h8L28 24l-4-5.333z"
        style="fill:var(--color1, #d6b1ff)" />
      <path fill="#02897a"
        d="M1.333 0h8v32h-8a1.334 1.334 0 0 1-1.334-1.334V1.333A1.335 1.335 0 0 1 1.333-.001zM12 0h8a1.335 1.335 0 0 1 1.334 1.334v29.333A1.334 1.334 0 0 1 20 32.001h-8v-32z"
        style="fill:var(--color3, #02897a)" />
    </symbol>
    <symbol id="icon-universities" viewBox="0 0 32 32">
      <path fill="#d6b1ff"
        d="M6.667 1.333h-4a1.335 1.335 0 0 0-1.334 1.334v26.667a1.335 1.335 0 0 0 1.334 1.334h4V1.335z"
        style="fill:var(--color1, #d6b1ff)" />
      <path fill="#f03e3d"
        d="M9.333 30.667h13.333V1.334H9.333v29.333zM16 25.333a1.334 1.334 0 1 1 0-2.667 1.334 1.334 0 0 1 0 2.667zm0-18.666a1.335 1.335 0 0 1 .943 2.277A1.334 1.334 0 1 1 16 6.667zm0 8a1.334 1.334 0 1 1 0 2.667 1.334 1.334 0 0 1 0-2.667zM29.333 1.333h-4v29.333h4a1.334 1.334 0 0 0 1.334-1.334V2.665a1.334 1.334 0 0 0-1.334-1.334z"
        style="fill:var(--color4, #f03e3d)" />
    </symbol>
    <symbol id="icon-menu" viewBox="0 0 29 32">
      <path fill="none" stroke="#173a56" style="stroke: var(--color1, #173a56)" stroke-linejoin="round"
        stroke-linecap="round" stroke-miterlimit="4" stroke-width="3.0968" d="M3.613 16h21.677"></path>
      <path fill="none" stroke="#173a56" style="stroke: var(--color1, #173a56)" stroke-linejoin="round"
        stroke-linecap="round" stroke-miterlimit="4" stroke-width="3.0968" d="M3.613 8h21.677"></path>
      <path fill="none" stroke="#173a56" style="stroke: var(--color1, #173a56)" stroke-linejoin="round"
        stroke-linecap="round" stroke-miterlimit="4" stroke-width="3.0968" d="M3.613 24h21.677"></path>
    </symbol>
    <symbol id="icon-menu-next" viewBox="0 0 36 32">
      <path
        d="M1.199 4.002c0-0.637 0.253-1.247 0.703-1.697s1.061-0.703 1.697-0.703h28.8c0.637 0 1.247 0.253 1.697 0.703s0.703 1.061 0.703 1.697-0.253 1.247-0.703 1.697c-0.45 0.45-1.060 0.703-1.697 0.703h-28.8c-0.637 0-1.247-0.253-1.697-0.703s-0.703-1.061-0.703-1.697z">
      </path>
      <path
        d="M1.199 16.002c0-0.637 0.253-1.247 0.703-1.697s1.061-0.703 1.697-0.703h28.8c0.637 0 1.247 0.253 1.697 0.703s0.703 1.061 0.703 1.697-0.253 1.247-0.703 1.697c-0.45 0.45-1.060 0.703-1.697 0.703h-28.8c-0.637 0-1.247-0.253-1.697-0.703s-0.703-1.061-0.703-1.697z">
      </path>
      <path
        d="M1.199 28.002c0-0.637 0.253-1.247 0.703-1.697s1.061-0.703 1.697-0.703h28.8c0.637 0 1.247 0.253 1.697 0.703s0.703 1.060 0.703 1.697c0 0.636-0.253 1.247-0.703 1.697s-1.060 0.703-1.697 0.703h-28.8c-0.637 0-1.247-0.253-1.697-0.703s-0.703-1.061-0.703-1.697z">
      </path>
    </symbol>
  </defs>
</svg>